/* XPM */
static char *_92f0c81a8614f98c0dfba35b9dc5994TAgSvhzVOYrwAiwR[] = {
/* columns rows colors chars-per-pixel */
"64 64 164 2 ",
"   c #2C2C2C",
".  c #352D2C",
"X  c #3A2D2C",
"o  c gray22",
"O  c #422E2D",
"+  c #492E2D",
"@  c #582F2D",
"#  c #6E312D",
"$  c #4F4847",
"%  c #484848",
"&  c #544747",
"*  c #5A4746",
"=  c #554847",
"-  c #545454",
";  c #5C5353",
":  c #614745",
">  c #6B4645",
",  c #764643",
"<  c #7C4543",
"1  c #7D4F4D",
"2  c #73504E",
"3  c #79504D",
"4  c #645252",
"5  c #6C5150",
"6  c #76605F",
"7  c #646464",
"8  c #6B6262",
"9  c #7C7C7C",
"0  c #86332E",
"q  c #9F342F",
"w  c #A0342E",
"e  c #B7362F",
"r  c #BB362F",
"t  c #D3382F",
"y  c #CD3F38",
"u  c #D53E35",
"i  c #DE3E35",
"p  c #E4392F",
"a  c #E43C33",
"s  c #EB3D33",
"d  c #F43D32",
"f  c #FF3B30",
"g  c #9E433E",
"h  c #AE423C",
"j  c #B3413B",
"k  c #BC433D",
"l  c #C24039",
"z  c #CC423A",
"x  c #D0433B",
"c  c #DC443B",
"v  c #FB4136",
"b  c #F4463D",
"n  c #FA443B",
"m  c #F5483F",
"M  c #F9493F",
"N  c #8F4440",
"B  c #844A47",
"V  c #8B4D4A",
"C  c #984C48",
"Z  c #845D5B",
"A  c #8A5B59",
"S  c #9B5754",
"D  c #945956",
"F  c #A54A45",
"G  c #AF4843",
"H  c #B34742",
"J  c #B94640",
"K  c #BF4D47",
"L  c #BC4F49",
"P  c #AE524D",
"I  c #B7504B",
"U  c #A25651",
"Y  c #827A7A",
"T  c #937271",
"R  c #AF6562",
"E  c #AB7976",
"W  c #B37370",
"Q  c #C44C46",
"!  c #CA4B44",
"~  c #D35D57",
"^  c #DB5A53",
"/  c #E74E46",
"(  c #EF4C43",
")  c #F54C43",
"_  c #F94B42",
"`  c #E5534C",
"'  c #ED524A",
"]  c #F25047",
"[  c #F2544B",
"{  c #ED5A53",
"}  c #EB5F58",
"|  c #CC625C",
" . c #D9615A",
".. c #E4635C",
"X. c #EC615B",
"o. c #D76A64",
"O. c #DB6B65",
"+. c #C7706C",
"@. c #D6726D",
"#. c #C37571",
"$. c #CD7E7A",
"%. c #D37671",
"&. c #D17974",
"*. c #DB7974",
"=. c #D87F7A",
"-. c #E66761",
";. c #EC6760",
":. c #E96D67",
">. c #E26F69",
",. c #E4736D",
"<. c #E57671",
"1. c #B3827F",
"2. c #CA827F",
"3. c #D6827E",
"4. c #E0807B",
"5. c #8C8C8C",
"6. c #958786",
"7. c #9C8281",
"8. c #918989",
"9. c #9C9594",
"0. c #989898",
"q. c #A68D8C",
"w. c #AA8B8A",
"e. c #BC918F",
"r. c #A09291",
"t. c #BB9492",
"y. c #B69897",
"u. c #B29D9C",
"i. c #ACA4A4",
"p. c gray66",
"a. c #BFA4A2",
"s. c #BDA8A7",
"d. c #B7AFAF",
"f. c #B9ADAC",
"g. c #B4B4B4",
"h. c #C38987",
"j. c #C18C8A",
"k. c #CE8E8A",
"l. c #D48581",
"z. c #DC8884",
"x. c #CD908D",
"c. c #D8928F",
"v. c #C89694",
"b. c #C69A97",
"n. c #C49C9A",
"m. c #D69693",
"M. c #E78C87",
"N. c #E88883",
"B. c #E39996",
"V. c #E29D9A",
"C. c #C2A09E",
"Z. c #E0A29F",
"A. c #C1A2A0",
"S. c #CFA3A1",
"D. c #CCA8A7",
"F. c #CAAEAD",
"G. c #DBB1AF",
"H. c #C6B5B4",
"J. c #C4B8B7",
"K. c #C2BCBC",
"L. c #D7BDBC",
"P. c #C0C0C0",
"I. c #D1CCCC",
"U. c #D0D0D0",
/* pixels */
"% - % 0.p.g.P.U.U.U.U.U.U.U.U.U.U.U.U.U.U.U.U.U.U.U.U.U.P.g.p.0.% - % 0.p.g.P.U.U.U.U.U.U.U.U.U.U.U.U.U.U.U.U.U.U.U.U.U.P.g.p.0.",
"% - % 9 P.P.P.P.P.P.P.P.P.P.P.P.g.g.g.g.P.g.P.g.P.g.P.g.P.g.P.5.% - % 9 P.P.P.P.P.P.P.P.P.P.P.P.g.g.g.g.P.g.P.g.P.g.P.g.P.g.P.5.",
"% - % 9 P.P.g.P.P.P.g.g.P.g.g.g.g.g.g.g.g.P.g.P.g.P.g.g.g.P.g.5.% - % 9 P.P.g.P.P.P.g.g.P.g.g.g.g.g.g.g.g.P.g.P.g.P.g.g.g.P.g.5.",
"% - % 9 g.g.P.g.g.P.P.g.g.g.p.g.g.g.g.g.P.g.P.g.P.g.g.g.g.p.g.5.% - % 9 g.g.P.g.g.P.P.g.g.g.p.g.g.g.g.g.P.g.P.g.P.g.g.g.g.p.g.5.",
"% - % 9 g.P.g.g.g.g.P.g.g.p.g.p.P.g.g.P.g.g.g.P.g.P.g.P.p.g.p.5.% - % 9 g.P.g.g.g.g.P.g.g.p.g.p.P.g.g.P.g.g.g.P.g.P.g.P.p.g.p.5.",
"% - % 9 g.P.g.g.g.g.P.g.g.p.g.p.P.g.g.P.g.g.g.P.g.P.g.P.p.g.p.5.% - % 9 g.P.g.g.g.g.P.g.g.p.g.p.P.g.g.P.g.g.g.P.g.P.g.P.p.g.p.5.",
"% - % 9 g.g.P.g.g.g.g.g.p.g.p.P.g.P.g.p.g.g.g.g.p.g.P.p.g.p.p.5.% - % 9 g.g.P.g.g.g.g.g.p.g.p.P.g.P.g.p.g.g.g.g.p.g.P.p.g.p.p.5.",
"% - % 9 g.g.g.P.g.g.g.p.g.p.g.p.P.p.P.p.p.g.p.g.p.p.p.p.p.p.g.5.% - % 9 g.g.g.P.g.g.g.p.g.p.g.p.P.p.P.p.p.g.p.g.p.p.p.p.p.p.g.5.",
"% - % 9 g.g.p.g.p.p.p.p.p.g.p.g.p.p.p.p.p.p.g.p.P.p.p.g.g.p.p.5.% - % 9 g.g.p.g.p.p.p.p.p.g.p.g.p.p.p.p.p.p.g.p.P.p.p.g.g.p.p.5.",
"% - % 9 p.0.g.0.p.p.p.p.0.p.g.p.p.0.p.g.p.g.0.p.p.p.0.p.p.0.p.5.% - % 9 p.0.g.0.p.p.p.p.0.p.g.p.p.0.p.g.p.g.0.p.p.p.0.p.p.0.p.5.",
"% - % 9 p.5.0.p.0.5.p.0.p.0.p.0.0.p.0.0.p.0.p.p.p.0.p.5.0.p.0.5.% - % 9 p.5.0.p.0.5.p.0.p.0.p.0.0.p.0.0.p.0.p.p.p.0.p.5.0.p.0.5.",
"% - % 9 5.5.5.0.5.0.5.p.5.p.0.5.p.0.5.0.5.0.5.0.5.p.5.0.5.p.0.5.% - % 9 5.5.5.0.5.0.5.p.5.p.0.5.p.0.5.0.5.0.5.0.5.p.5.0.5.p.0.5.",
"% - % 9 0.5.0.5.0.q.q.7.q.7.8.p.0.0.0.5.0.5.0.5.0.5.0.5.0.8.7.7.: 5 : Y 0.5.0.5.0.0.0.5.0.5.5.p.0.0.9.7.q.7.q.7.9.5.0.5.0.5.5.5.",
"% - % 7 7 7 7 7 8 L Q Q Q K D 7 7 7 7 7 7 7 7 7 7 7 7 7 7 A Q Q k k j D 7 7 7 7 7 7 7 7 7 7 7 7 7 8 A Q Q Q Q L 6 7 7 7 7 7 7 7 ",
"% % o           O t f f f f e                           X w f f f f f e                           X w f f f f p O             o ",
"% % % % % % % % & h f f f f i $ % % % % % % % % % % % % * u f f f f f a = % % % % % % % % % % % % * y f f f f y % % % % % % % % ",
"- - - - - - - - ; V f f f f d 2 - - - - - - - - - - - - 2 d f f f f f d B - - - - - - - - - - - - 5 d f f f d F - - - - - - - - ",
"U.U.U.U.U.U.U.U.I.L.M f f f v N - % 0.p.g.P.U.U.U.U.U.I.V.f f f f f f n M.U.U.U.U.U.U.P.g.p.0.% - < f f f f M G.U.U.U.U.U.U.U.U.",
"g.g.g.P.g.P.g.P.g.H.} f f f d j - % 9 P.P.P.P.P.P.P.P.J.,.f f f f f f f } K.g.P.g.P.g.P.g.P.5.% ; g f f f f [ K.P.P.P.P.P.g.g.g.",
"g.g.g.g.P.g.P.g.P.d.*.f f f f u - % 9 P.P.g.P.P.P.g.g.H.) f f f n f f f ) s.P.g.P.g.g.g.P.g.5.% 4 l f f f f :.P.P.g.g.g.g.g.g.g.",
"g.g.g.P.g.P.g.P.g.g.v.f f f f s 4 % 9 g.g.P.g.g.P.P.g.b.f f f v >.f f f n m.g.P.g.g.g.g.p.g.5.% 4 a f f f n l.g.P.P.g.p.g.g.g.g.",
"P.g.p.g.g.g.g.p.g.P.u._ f f f d V % 9 g.g.P.g.g.g.g.d.&.f f f _ S.] f f v ,.g.p.g.P.p.g.p.p.5.% 3 f f f f M n.g.g.g.g.p.P.g.P.P.",
"p.P.p.p.g.p.g.p.p.p.i...f f f d G % 9 g.g.g.P.g.g.g.i.X.f f f X.i.,.f f f ' g.p.p.p.p.p.p.g.5.$ C f f f f [ K.g.g.g.p.g.p.P.p.p.",
"g.g.P.g.g.g.P.g.P.g.K.&.f f f f x % 9 g.P.g.g.g.g.K.a.n f f v 4.g.k.f f f n D.g.P.g.P.p.g.p.5.= J f f f v >.g.g.g.P.g.g.p.P.g.g.",
"P.g.p.g.g.g.g.p.g.P.p.b.f f f f s = 9 g.g.P.g.g.g.g.x.f f f n v.K.A.v f f v 3.p.g.P.p.g.p.p.5.* c f f f n c.g.g.g.g.g.p.P.g.P.P.",
"p.P.p.p.g.p.g.p.p.p.p.u._ f f f d , 9 g.g.g.P.g.g.d.O.f f f ) J.p.H.{ f f f ..p.p.p.p.p.p.g.5.> d f f f _ a.P.g.g.g.p.g.p.P.p.p.",
"p.p.p.p.p.g.p.P.p.p.g.d...f f f d g 9 g.g.p.g.p.p.u.' f f f -.p.p.i.@.f f f ) H.p.p.g.g.p.p.5.N f f f f { p.g.p.p.p.p.p.g.p.p.p.",
"0.p.g.p.g.0.p.p.p.0.p.p.#.f f f f l 9 p.0.g.0.p.p.t.f f f v $.p.0.p.v.f f f n j.p.0.p.p.0.p.8.h f f f v o.g.0.p.p.p.p.g.p.p.0.0.",
"p.0.0.p.0.p.p.p.0.p.5.0.t.f f f f a Y p.5.0.p.0.8.$.f f f m w.0.p.0.q._ f f v @.0.p.5.0.p.0.6.u f f f n W 0.p.0.5.p.0.p.0.0.p.p.",
"0.5.0.5.0.5.0.5.p.5.0.5.u.( f f f s T 5.5.5.0.5.r.^ f f f ' 5.p.0.5.9.^ f f f ` p.5.0.5.p.0.7.d f f f b 7.5.0.5.0.5.p.0.5.p.0.0.",
"0.0.5.0.5.0.5.0.5.0.5.0.6.~ f f f d R 0.5.0.5.0.q.b f f d | p.0.0.0.8.#.f f f b 7.0.5.0.5.5.E f f f f ` 5.0.5.0.0.0.5.5.p.0.0.0.",
"7 7 7 7 7 7 7 7 7 7 7 7 8 U f f f f Q 7 7 7 7 8 D f f f d D 7 7 7 7 7 Z f f f d U 7 7 7 7 8 P f f f f I 7 7 7 7 7 7 7 7 7 7 7 7 ",
"                          @ d f f f t         X w f f f a O           O u f f f e         X r f f f d #                         ",
"% % % % % % % % % % % % % * i f f f s * % % % * u f f f z % % % % % % & j f f f a & % % % * s f f f a * % % % % % % % % % % % % ",
"- - - - - - - - - - - - - ; J f f f d V - - - 2 d f f d F - - - % - % ; V f f f d 1 - - - 1 f f f f z - - - - - - - - - - - - - ",
"% - % 0.p.g.P.U.U.U.U.U.U.I.Z.f f f n N.U.U.I.V.f f f _ D.g.p.0.% - % 0.u.M f f n M.U.U.I.B.f f f n M.U.U.U.U.U.U.U.U.U.P.g.p.0.",
"% - % 9 P.P.P.P.P.P.P.P.P.K.F.n f f f X.P.g.J.>.f f f [ K.g.P.5.% - % 9 H.;.f f f X.K.P.J.,.f f f n n.g.P.g.P.g.P.g.P.g.P.g.P.5.",
"% - % 9 P.P.g.P.P.P.g.g.P.g.f.{ f f f ) d.P.s.[ f f v ,.g.P.g.5.% - % 9 K.z.f f f ) s.g.H.[ f f f ] d.g.g.P.g.P.g.P.g.g.g.P.g.5.",
"% - % 9 g.g.P.g.g.P.P.g.g.g.i.*.f f f n S.g.S.f f f n k.g.p.g.5.% - % 9 g.n.f f f n m.g.A.v f f f -.g.g.P.g.P.g.P.g.g.g.g.p.g.5.",
"% - % 9 g.P.g.g.g.g.P.g.g.p.g.h.f f f n 3.d.=.f f f ) H.p.g.p.5.% - % 9 g.H.] f f v <.g.k.f f f n l.g.P.g.g.g.P.g.P.g.P.p.g.p.5.",
"% - % 9 g.g.P.g.g.g.g.g.p.g.p.F.n f f f -.f.X.f f f X.p.g.p.p.5.% - % 9 g.d.,.f f f [ f.@.f f f M D.g.p.g.g.g.g.p.g.P.p.g.p.p.5.",
"% - % 9 g.g.g.P.g.g.g.p.g.p.g.i.X.f f f ] C.n f f v %.p.p.p.g.5.% - % 9 g.g.k.f f f n j.} f f f [ p.P.p.p.g.p.g.p.p.p.p.p.p.g.5.",
"% - % 9 g.g.p.g.p.p.p.p.p.g.p.d.%.f f f v %.f f f n e.g.g.p.p.5.% - % 9 g.g.y.n f f v O.n f f v O.p.p.p.p.p.g.p.P.p.p.g.g.p.p.5.",
"% - % 9 p.0.g.0.p.p.p.p.0.p.g.p.j.f f f f ) f f f ] 9.p.p.0.p.5.% - % 9 p.0.f.` f f f ) f f f v 2.0.p.g.p.g.0.p.p.p.0.p.p.0.p.5.",
"% - % 9 p.5.0.p.0.5.p.0.p.0.p.0.q.m f f f f f f f  .p.5.0.p.0.5.% - % 9 p.5.9.%.f f f f f f f b w.p.0.0.p.0.p.p.p.0.p.5.0.p.0.5.",
"% - % 9 5.5.5.0.5.0.5.p.5.p.0.5.i.^ f f f f f f v 2.5.0.5.p.0.5.% - % 9 5.5.5.1.f f f f f f f / p.0.5.0.5.0.5.0.5.p.5.0.5.p.0.5.",
"% - % 9 0.5.0.5.0.0.0.5.0.5.5.p.9.+.f f f f f f b 7.0.5.0.5.5.5.% - % 9 0.5.0.7.m f f f f f d O.0.0.0.5.0.5.0.5.0.5.0.5.0.5.5.5.",
"% - % 7 7 7 7 7 7 7 7 7 7 7 7 7 7 A f f f f f f c 7 7 7 7 7 7 7 % - % 7 7 7 7 8 ! f f f f f d S 7 7 7 7 7 7 7 7 7 7 7 7 7 7 7 7 ",
"% - % o                           + a f f f f d q             o o % o o       . 0 f f f f f s +                               o ",
"% % % % % % % % % % % % % % % % % = l f f f f d < % % % % % % % % % % % % % % % > d f f f f u % % % % % % % % % % % % % % % % % ",
"- - - - - - - - - - - - - - - - - ; V J J J J H 4 - - - - - - - - - - - - - - - ; G J J J J C - - - - - - - - - - - - - - - - - ",
"U.U.U.U.U.U.U.U.U.U.U.P.g.p.0.% - % 0.p.g.P.U.U.U.U.U.U.U.U.U.U.U.U.U.U.U.U.U.U.U.U.U.P.g.p.0.% - % 0.p.g.P.U.U.U.U.U.U.U.U.U.U.",
"g.g.g.P.g.P.g.P.g.P.g.P.g.P.5.% - % 9 P.P.P.P.P.P.P.P.P.P.P.P.g.g.g.g.P.g.P.g.P.g.P.g.P.g.P.5.% - % 9 P.P.P.P.P.P.P.P.P.P.g.g.g.",
"g.g.g.g.P.g.P.g.P.g.g.g.P.g.5.% - % 9 P.P.g.P.P.P.g.g.P.g.g.g.g.g.g.g.g.P.g.P.g.P.g.g.g.P.g.5.% - % 9 P.P.g.P.P.P.g.g.g.g.g.g.g.",
"g.g.g.P.g.P.g.P.g.g.g.g.p.g.5.% - % 9 g.g.P.g.g.P.P.g.g.g.p.g.g.g.g.g.P.g.P.g.P.g.g.g.g.p.g.5.% - % 9 g.g.P.g.g.P.P.g.p.g.g.g.g.",
"g.g.P.g.g.g.P.g.P.g.P.p.g.p.5.% - % 9 g.P.g.g.g.g.P.g.g.p.g.p.P.g.g.P.g.g.g.P.g.P.g.P.p.g.p.5.% - % 9 g.P.g.g.g.g.P.g.g.p.P.g.g.",
"P.g.p.g.g.g.g.p.g.P.p.g.p.p.5.% - % 9 g.g.P.g.g.g.g.g.p.g.p.P.g.P.g.p.g.g.g.g.p.g.P.p.g.p.p.5.% - % 9 g.g.P.g.g.g.g.g.p.P.g.P.P.",
"p.P.p.p.g.p.g.p.p.p.p.p.p.g.5.% - % 9 g.g.g.P.g.g.g.p.g.p.g.p.P.p.P.p.p.g.p.g.p.p.p.p.p.p.g.5.% - % 9 g.g.g.P.g.g.g.p.g.p.P.p.p.",
"p.p.p.p.p.g.p.P.p.p.g.g.p.p.5.% - % 9 g.g.p.g.p.p.p.p.p.g.p.g.p.p.p.p.p.p.g.p.P.p.p.g.g.p.p.5.% - % 9 g.g.p.g.p.p.p.p.p.g.p.p.p.",
"0.p.g.p.g.0.p.p.p.0.p.p.0.p.5.% - % 9 p.0.g.0.p.p.p.p.0.p.g.p.p.0.p.g.p.g.0.p.p.p.0.p.p.0.p.5.% - % 9 p.0.g.0.p.p.p.p.g.p.p.0.0.",
"p.0.0.p.0.p.p.p.0.p.5.0.p.0.5.% - % 9 p.5.0.p.0.5.p.0.p.0.p.0.0.p.0.0.p.0.p.p.p.0.p.5.0.p.0.5.% - % 9 p.5.0.p.0.5.p.0.p.0.0.p.p.",
"0.5.0.5.0.5.0.5.p.5.0.5.p.0.5.% - % 9 5.5.5.0.5.0.5.p.5.p.0.5.p.0.5.0.5.0.5.0.5.p.5.0.5.p.0.5.% - % 9 5.5.5.0.5.0.5.p.0.5.p.0.0.",
"0.0.5.0.5.0.5.0.5.0.5.0.5.5.5.% - % 9 0.5.0.5.0.0.0.5.0.5.5.p.0.0.0.5.0.5.0.5.0.5.0.5.0.5.5.5.% - % 9 0.5.0.5.0.0.0.5.5.p.0.0.0.",
"7 7 7 7 7 7 7 7 7 7 7 7 7 7 7 % - % 7 7 7 7 7 7 7 7 7 7 7 7 7 7 7 7 7 7 7 7 7 7 7 7 7 7 7 7 7 % - % 7 7 7 7 7 7 7 7 7 7 7 7 7 7 "
};
