/* XPM */
static char *_5100b864ce344f1e12b99887d2b4746Gd3H9rBSYrlZaoN2[] = {
/* columns rows colors chars-per-pixel */
"64 64 144 2 ",
"   c #2C2C2C",
".  c #342D2C",
"X  c #3F2D2C",
"o  c gray22",
"O  c #402D2D",
"+  c #502F2D",
"@  c #5A2F2D",
"#  c #4E4847",
"$  c #484848",
"%  c #594746",
"&  c #504847",
"*  c #545454",
"=  c #654645",
"-  c #6A4644",
";  c #764543",
":  c #7B4F4D",
">  c #71504F",
",  c #635252",
"<  c #6A5150",
"1  c #79605E",
"2  c #646464",
"3  c #6D6262",
"4  c #736160",
"5  c #7C7C7C",
"6  c #82322E",
"7  c #90332E",
"8  c #9E342F",
"9  c #A9352F",
"0  c #B5362F",
"q  c #C5372F",
"w  c #D53F37",
"e  c #DD3E35",
"r  c #E43C33",
"t  c #EB3C33",
"y  c #F33C32",
"u  c #FF3B30",
"i  c #91443F",
"p  c #9F433E",
"a  c #A9423D",
"s  c #BF463F",
"d  c #CC433C",
"f  c #D9473E",
"g  c #E94239",
"h  c #EE483F",
"j  c #F64036",
"k  c #FB4136",
"l  c #F7453B",
"z  c #FA443A",
"x  c #F4483F",
"c  c #F9483E",
"v  c #814541",
"b  c #8D4440",
"n  c #864E4B",
"m  c #8A4D4A",
"M  c #904440",
"N  c #974B47",
"B  c #964B48",
"V  c #895C5A",
"C  c #955856",
"Z  c #AC4843",
"A  c #B44741",
"S  c #B94640",
"D  c #B04842",
"F  c #AB534F",
"G  c #B5504B",
"H  c #A15652",
"J  c #8A7675",
"K  c #A86965",
"L  c #BE6C67",
"P  c #B8706C",
"I  c #B07572",
"U  c #BF7774",
"Y  c #BF7874",
"T  c #C44C46",
"R  c #D4524B",
"E  c #D65B55",
"W  c #E54F47",
"Q  c #EC4A41",
"!  c #F34D44",
"~  c #EC534B",
"^  c #F35047",
"/  c #F3534A",
"(  c #F8554D",
")  c #E35750",
"_  c #EC5C54",
"`  c #E55F58",
"'  c #F25A52",
"]  c #CA635E",
"[  c #E3655E",
"{  c #E8635D",
"}  c #C76561",
"|  c #CE6B66",
" . c #DB6B66",
".. c #D5736E",
"X. c #DE746F",
"o. c #CF7B77",
"O. c #D47470",
"+. c #DB7A75",
"@. c #EC6760",
"#. c #E46C65",
"$. c #E47A74",
"%. c #9F807E",
"&. c #B6807D",
"*. c #C9827F",
"=. c #D5837E",
"-. c #E0817C",
";. c #8C8C8C",
":. c #968685",
">. c #9B8382",
",. c #938887",
"<. c #9C9595",
"1. c #989898",
"2. c #A68D8C",
"3. c #B18482",
"4. c #BF8E8C",
"5. c #BC928F",
"6. c #A19191",
"7. c #BA9391",
"8. c #B79896",
"9. c #B49C9B",
"0. c #AFA09F",
"q. c #AAA6A6",
"w. c gray66",
"e. c #BCA8A7",
"r. c #B9ACAC",
"t. c #B4B4B4",
"y. c #CE8E8B",
"u. c #D48480",
"i. c #D08A86",
"p. c #D8928F",
"a. c #CA9491",
"s. c #C59D9B",
"d. c #D79490",
"f. c #D29E9C",
"g. c #E88984",
"h. c #E29D9A",
"j. c #C0A3A2",
"k. c #CBABAA",
"l. c #C5B6B5",
"z. c #C2BDBD",
"x. c #C0C0C0",
"c. c #D4C5C5",
"v. c #D1CFCE",
"b. c #D0D0D0",
/* pixels */
"$ * $ 1.w.t.x.b.b.b.b.b.b.b.b.b.b.b.b.b.b.b.b.b.b.b.b.b.x.t.w.1.$ * $ 1.w.t.x.b.b.b.b.b.b.b.b.b.b.b.b.b.b.b.b.b.b.b.b.b.x.t.w.1.",
"$ * $ 5 x.x.x.x.x.x.x.x.x.x.x.x.t.t.t.t.x.t.x.t.x.t.x.t.x.t.x.;.$ * $ 5 x.x.x.x.x.x.x.x.x.x.x.x.t.t.t.t.x.t.x.t.x.t.x.t.x.t.x.;.",
"$ * $ 5 x.x.t.x.x.x.t.t.x.t.t.t.t.t.t.t.t.x.t.x.t.x.t.t.t.x.t.;.$ * $ 5 x.x.t.x.x.x.t.t.x.t.t.t.t.t.t.t.t.x.t.x.t.x.t.t.t.x.t.;.",
"$ * $ 5 t.t.x.t.t.x.x.t.t.t.w.t.t.t.t.t.x.t.x.t.x.t.t.t.t.w.t.;.$ * $ 5 t.t.x.t.t.x.x.t.t.t.w.t.t.t.t.t.x.t.x.t.x.t.t.t.t.w.t.;.",
"$ * $ 5 t.x.t.t.t.t.x.t.t.w.t.w.x.t.t.x.t.t.t.x.t.x.t.x.w.t.w.;.$ * $ 5 t.x.t.t.t.t.x.t.t.w.t.w.x.t.t.x.t.t.t.x.t.x.t.x.w.t.w.;.",
"$ * $ 5 t.x.t.t.t.t.x.t.t.w.t.w.x.t.t.x.t.t.t.x.t.x.t.x.w.t.w.;.$ * $ 5 t.x.t.t.t.t.x.t.t.w.t.w.x.t.t.x.t.t.t.x.t.x.t.x.w.t.w.;.",
"$ * $ 5 t.t.x.t.t.t.t.t.w.t.w.x.t.x.t.w.t.t.t.t.w.t.x.w.t.w.w.;.$ * $ 5 t.t.x.t.t.t.t.t.w.t.w.x.t.x.t.w.t.t.t.t.w.t.x.w.t.w.w.;.",
"$ * $ 5 t.t.t.x.t.t.t.w.t.w.t.w.x.w.x.w.w.t.w.t.w.w.w.w.w.w.t.;.$ * $ 5 t.t.t.x.t.t.t.w.t.w.t.w.x.w.x.w.w.t.w.t.w.w.w.w.w.w.t.;.",
"$ * $ 5 t.t.w.t.w.w.w.w.w.t.w.t.w.w.w.w.w.w.t.w.x.w.w.t.t.w.w.;.$ * $ 5 t.t.w.t.w.w.w.w.w.t.w.t.w.w.w.w.w.w.t.w.x.w.w.t.t.w.w.;.",
"$ * $ 5 w.1.t.1.w.w.w.w.1.w.t.w.w.1.w.t.w.t.1.w.w.w.1.w.w.1.w.;.$ * $ 5 w.1.t.1.w.w.w.w.1.w.t.w.w.1.w.t.w.t.1.w.w.w.1.w.w.1.w.;.",
"$ * $ 5 w.;.1.w.1.;.w.1.w.1.w.1.1.w.1.1.w.1.w.w.w.1.w.;.1.w.1.;.$ * $ 5 w.;.1.w.1.;.w.1.w.1.w.1.1.w.1.1.w.1.w.w.w.1.w.;.1.w.1.;.",
"$ * $ 5 ;.;.;.1.;.1.;.w.;.w.1.;.w.1.;.1.;.1.;.1.;.w.;.1.;.w.1.;.$ * $ 5 ;.;.;.1.;.1.;.w.;.w.1.;.w.1.;.1.;.1.;.1.;.w.;.1.;.w.1.;.",
"$ * $ 5 1.;.1.;.1.1.1.;.1.;.;.w.1.<.2.>.2.>.2.:.1.;.1.;.1.;.;.;.$ * $ 5 1.;.1.;.1.<.<.>.2.>.>.q.1.1.1.;.1.;.1.;.1.;.1.;.1.;.;.;.",
"$ * $ 2 2 2 2 2 2 2 2 2 2 2 2 2 2 V T T T T T F 1 2 2 2 2 2 2 2 $ * $ 2 2 2 2 2 2 3 C T T T G V 2 2 2 2 2 2 2 2 2 2 2 2 2 2 2 2 ",
"$ $ o                             6 u u u u u t 7 .             o $ o             O 8 u u u r 6                               o ",
"$ $ $ $ $ $ $ $ $ $ $ $ $ $ $ $ $ i u u u u u u w ; $ $ $ $ $ $ $ $ $ $ $ $ $ $ $ % a u u u r M $ $ $ $ $ $ $ $ $ $ $ $ $ $ $ $ ",
"* * * * * * * * * * * * * * * * * N u u u u u u y S , * * * * * * * * * * * * * * , Z u u u r B * * * * * * * * * * * * * * * * ",
"b.b.b.b.b.b.b.b.b.b.b.x.t.w.1.$ * i u u u u u u u ( h.v.b.b.b.b.b.b.b.b.b.b.b.b.b.c.g.u u u ! M * $ 1.w.t.x.b.b.b.b.b.b.b.b.b.b.",
"t.t.t.x.t.x.t.x.t.x.t.x.t.x.;.$ * i u u u u u u u u @.k.x.x.x.t.t.t.t.x.t.x.t.x.t.l.+.u u u h M * $ 5 x.x.x.x.x.x.x.x.x.x.t.t.t.",
"t.t.t.t.x.t.x.t.x.t.t.t.x.t.;.$ * i u u u u u u u u c -.r.t.t.t.t.t.t.t.x.t.x.t.x.r.+.u u u h M * $ 5 x.x.t.x.x.x.t.t.t.t.t.t.t.",
"t.t.t.x.t.x.t.x.t.t.t.t.w.t.;.$ * i u u u k c z u u u / a.w.t.t.t.t.t.x.t.x.t.x.t.r.+.u u u h M * $ 5 t.t.x.t.t.x.x.t.w.t.t.t.t.",
"x.t.w.t.t.t.t.w.t.x.w.t.w.w.;.$ * i u u u z { { u u u k #.9.x.t.x.t.w.t.t.t.t.w.t.l.O.u u u h M * $ 5 t.t.x.t.t.t.t.t.w.x.t.x.x.",
"w.x.w.w.t.w.t.w.w.w.w.w.w.t.;.$ * i u u u z $.y.! u u u ! =.q.x.w.x.w.w.t.w.t.w.w.0.O.u u u h M * $ 5 t.t.t.x.t.t.t.w.t.w.x.w.w.",
"t.t.x.t.t.t.x.t.x.t.x.w.t.w.;.$ * i u u u z +.e.+.k u u u _ 5.x.t.t.x.t.t.t.x.t.x.r.-.u u u h M * $ 5 t.x.t.t.t.t.x.t.t.w.x.t.t.",
"x.t.w.t.t.t.t.w.t.x.w.t.w.w.;.$ * i u u u z +.t.s._ u u u z $.r.x.t.w.t.t.t.t.w.t.l.O.u u u h M * $ 5 t.t.x.t.t.t.t.t.w.x.t.x.x.",
"w.x.w.w.t.w.t.w.w.w.w.w.w.t.;.$ * i u u u z -.t.r.i.x u u u ! d.q.x.w.w.t.w.t.w.w.0.O.u u u h M * $ 5 t.t.t.x.t.t.t.w.t.w.x.w.w.",
"w.w.w.w.w.t.w.x.w.w.t.t.w.w.;.$ * i u u u z +.w.w.9. .u u u u ` 8.w.w.w.w.t.w.x.w.0.+.u u u h M * $ 5 t.t.w.t.w.w.w.w.w.t.w.w.w.",
"1.w.t.w.t.1.w.w.w.1.w.w.1.w.;.$ * i u u u z | w.w.q.4.~ u u u c | q.t.w.t.1.w.w.w.6.O.u u u h M * $ 5 w.1.t.1.w.w.w.w.t.w.w.1.1.",
"w.1.1.w.1.w.w.w.1.w.;.1.w.1.;.$ * i u u u z ..1.;.w.<.o.l u u u ~ &.1.w.1.w.w.w.1.0.} u u u h M * $ 5 w.;.1.w.1.;.w.1.w.1.1.w.w.",
"1.;.1.;.1.;.1.;.w.;.1.;.w.1.;.$ * i u u u l | ;.1.;.w.%.[ u u u k E 2.;.1.;.1.;.w.:.| u u u h M * $ 5 ;.;.;.1.;.1.;.w.1.;.w.1.1.",
"1.1.;.1.;.1.;.1.;.1.;.1.;.;.;.$ * i u u u z ] 1.1.1.;.<.I Q u u u x L <.;.1.;.1.;.6.} u u u h M * $ 5 1.;.1.;.1.1.1.;.;.w.1.1.1.",
"2 2 2 2 2 2 2 2 2 2 2 2 2 2 2 $ * i u u u y G 2 2 2 2 2 4 G y u u u f V 2 2 2 2 2 4 G u u u g M * $ 2 2 2 2 2 2 2 2 2 2 2 2 2 2 ",
"                                  6 u u u y 8             @ q u u u y 9 X         O 8 u u u r 6                                 ",
"$ $ $ $ $ $ $ $ $ $ $ $ $ $ $ $ $ i u u u y a $ $ $ $ $ $ & b t u u u r b $ $ $ $ % a u u u r M $ $ $ $ $ $ $ $ $ $ $ $ $ $ $ $ ",
"* * * * * * * * * * * * * * * * * N u u u y D * * * * * * * < A u u u u d > * * * , Z u u u r B * * * * * * * * * * * * * * * * ",
"$ * $ 1.w.t.x.b.b.b.b.b.b.b.b.b.v.h.u u u c g.b.b.b.b.b.x.t.q.3.w u u u c +.z.b.b.c.g.u u u ( h.b.b.b.b.b.b.b.b.b.b.b.b.x.t.w.1.",
"$ * $ 5 x.x.x.x.x.x.x.x.x.x.x.x.t.i.u u u z -.t.x.t.x.t.x.t.x.,.i t u u u ' f.x.x.l.-.u u u ^ p.t.t.t.t.x.t.x.t.x.t.x.t.x.t.x.;.",
"$ * $ 5 x.x.t.x.x.x.t.t.x.t.t.t.t.i.u u u z +.x.t.x.t.t.t.x.t.;.= s u u u k #.l.x.l.+.u u u ! i.t.t.t.t.t.x.t.x.t.x.t.t.t.x.t.;.",
"$ * $ 5 t.t.x.t.t.x.x.t.t.t.w.t.t.i.u u u z -.t.x.t.t.t.t.w.t.;.$ n e u u u ! u.t.l.-.u u u ! i.t.t.t.t.x.t.x.t.x.t.t.t.t.w.t.;.",
"$ * $ 5 t.x.t.t.t.t.x.t.t.w.t.w.z.i.u u u z +.x.t.x.t.x.w.t.w.;.$ , p j u u u _ s.r.-.u u u ! *.x.t.t.x.t.t.t.x.t.x.t.x.w.t.w.;.",
"$ * $ 5 t.t.x.t.t.t.t.t.w.t.w.x.t.p.u u u z +.t.w.t.x.w.t.w.w.;.$ * - R u u u z X.j.+.u u u ! p.t.x.t.w.t.t.t.t.w.t.x.w.t.w.w.;.",
"$ * $ 5 t.t.t.x.t.t.t.w.t.w.t.w.z.*.u u u z ..t.w.w.w.w.w.w.t.;.$ * # K ^ u u u / u.+.u u u ! *.x.w.x.w.w.t.w.t.w.w.w.w.w.w.t.;.",
"$ * $ 5 t.t.w.t.w.w.w.w.w.t.w.t.q.*.u u u z +.w.x.w.w.t.t.w.w.;.$ * $ J +.k u u u _ [ u u u ! i.w.w.w.w.w.w.t.w.x.w.w.t.t.w.w.;.",
"$ * $ 5 w.1.t.1.w.w.w.w.1.w.t.w.q.Y u u u z | w.w.w.1.w.w.1.w.;.$ * $ 5 7.) u u u k c u u u ! *.w.1.w.t.w.t.1.w.w.w.1.w.w.1.w.;.",
"$ * $ 5 w.;.1.w.1.;.w.1.w.1.w.1.<.*.u u u z ..w.w.1.w.;.1.w.1.;.$ * $ 5 q.P x u u u u u u u ! U 1.w.1.1.w.1.w.w.w.1.w.;.1.w.1.;.",
"$ * $ 5 ;.;.;.1.;.1.;.w.;.w.1.;.q.Y u u u z ] 1.;.w.;.1.;.w.1.;.$ * $ 5 ;.>.] u u u u u u u ! P w.1.;.1.;.1.;.1.;.w.;.1.;.w.1.;.",
"$ * $ 5 1.;.1.;.1.1.1.;.1.;.;.w.<.Y u u u l | ;.1.;.1.;.1.;.;.;.$ * $ 5 1.;.3.W u u u u u u h *.1.1.1.;.1.;.1.;.1.;.1.;.1.;.;.;.",
"$ * $ 2 2 2 2 2 2 2 2 2 2 2 2 2 2 H u u u y G 2 2 2 2 2 2 2 2 2 $ * $ 2 2 2 3 F y u u u u u g H 2 2 2 2 2 2 2 2 2 2 2 2 2 2 2 2 ",
"$ * $ o                           6 u u u y 8                 o o $ o o       + 0 u u u u u r 6                               o ",
"$ $ $ $ $ $ $ $ $ $ $ $ $ $ $ $ $ i u u u y a $ $ $ $ $ $ $ $ $ $ $ $ $ $ $ $ # v r u u u u r M $ $ $ $ $ $ $ $ $ $ $ $ $ $ $ $ ",
"* * * * * * * * * * * * * * * * * : S S S A m * * * * * * * * * * * * * * * * * , B S S S S Z : * * * * * * * * * * * * * * * * ",
"b.b.b.b.b.b.b.b.b.b.b.x.t.w.1.$ * $ 1.w.t.x.b.b.b.b.b.b.b.b.b.b.b.b.b.b.b.b.b.b.b.b.b.x.t.w.1.$ * $ 1.w.t.x.b.b.b.b.b.b.b.b.b.b.",
"t.t.t.x.t.x.t.x.t.x.t.x.t.x.;.$ * $ 5 x.x.x.x.x.x.x.x.x.x.x.x.t.t.t.t.x.t.x.t.x.t.x.t.x.t.x.;.$ * $ 5 x.x.x.x.x.x.x.x.x.x.t.t.t.",
"t.t.t.t.x.t.x.t.x.t.t.t.x.t.;.$ * $ 5 x.x.t.x.x.x.t.t.x.t.t.t.t.t.t.t.t.x.t.x.t.x.t.t.t.x.t.;.$ * $ 5 x.x.t.x.x.x.t.t.t.t.t.t.t.",
"t.t.t.x.t.x.t.x.t.t.t.t.w.t.;.$ * $ 5 t.t.x.t.t.x.x.t.t.t.w.t.t.t.t.t.x.t.x.t.x.t.t.t.t.w.t.;.$ * $ 5 t.t.x.t.t.x.x.t.w.t.t.t.t.",
"t.t.x.t.t.t.x.t.x.t.x.w.t.w.;.$ * $ 5 t.x.t.t.t.t.x.t.t.w.t.w.x.t.t.x.t.t.t.x.t.x.t.x.w.t.w.;.$ * $ 5 t.x.t.t.t.t.x.t.t.w.x.t.t.",
"x.t.w.t.t.t.t.w.t.x.w.t.w.w.;.$ * $ 5 t.t.x.t.t.t.t.t.w.t.w.x.t.x.t.w.t.t.t.t.w.t.x.w.t.w.w.;.$ * $ 5 t.t.x.t.t.t.t.t.w.x.t.x.x.",
"w.x.w.w.t.w.t.w.w.w.w.w.w.t.;.$ * $ 5 t.t.t.x.t.t.t.w.t.w.t.w.x.w.x.w.w.t.w.t.w.w.w.w.w.w.t.;.$ * $ 5 t.t.t.x.t.t.t.w.t.w.x.w.w.",
"w.w.w.w.w.t.w.x.w.w.t.t.w.w.;.$ * $ 5 t.t.w.t.w.w.w.w.w.t.w.t.w.w.w.w.w.w.t.w.x.w.w.t.t.w.w.;.$ * $ 5 t.t.w.t.w.w.w.w.w.t.w.w.w.",
"1.w.t.w.t.1.w.w.w.1.w.w.1.w.;.$ * $ 5 w.1.t.1.w.w.w.w.1.w.t.w.w.1.w.t.w.t.1.w.w.w.1.w.w.1.w.;.$ * $ 5 w.1.t.1.w.w.w.w.t.w.w.1.1.",
"w.1.1.w.1.w.w.w.1.w.;.1.w.1.;.$ * $ 5 w.;.1.w.1.;.w.1.w.1.w.1.1.w.1.1.w.1.w.w.w.1.w.;.1.w.1.;.$ * $ 5 w.;.1.w.1.;.w.1.w.1.1.w.w.",
"1.;.1.;.1.;.1.;.w.;.1.;.w.1.;.$ * $ 5 ;.;.;.1.;.1.;.w.;.w.1.;.w.1.;.1.;.1.;.1.;.w.;.1.;.w.1.;.$ * $ 5 ;.;.;.1.;.1.;.w.1.;.w.1.1.",
"1.1.;.1.;.1.;.1.;.1.;.1.;.;.;.$ * $ 5 1.;.1.;.1.1.1.;.1.;.;.w.1.1.1.;.1.;.1.;.1.;.1.;.1.;.;.;.$ * $ 5 1.;.1.;.1.1.1.;.;.w.1.1.1.",
"2 2 2 2 2 2 2 2 2 2 2 2 2 2 2 $ * $ 2 2 2 2 2 2 2 2 2 2 2 2 2 2 2 2 2 2 2 2 2 2 2 2 2 2 2 2 2 $ * $ 2 2 2 2 2 2 2 2 2 2 2 2 2 2 "
};
