/* XPM */
static char *_04d30a5d9674f8d9069bfe91af27a49905mZH61ditNY2NZ[] = {
/* columns rows colors chars-per-pixel */
"64 64 108 2 ",
"   c #2C2C2C",
".  c #3A2D2C",
"X  c gray22",
"o  c #402D2C",
"O  c #452E2D",
"+  c #484848",
"@  c #514747",
"#  c #5D4746",
"$  c gray33",
"%  c #5A5353",
"&  c #5F5352",
"*  c #624745",
"=  c #6E4644",
"-  c #78504E",
";  c #6C5150",
":  c #75605F",
">  c #646464",
",  c #6A6362",
"<  c #726160",
"1  c #7C7C7C",
"2  c #9F342E",
"3  c #BE372F",
"4  c #D03F37",
"5  c #F13A31",
"6  c #F83A30",
"7  c #FF3B30",
"8  c #F93C31",
"9  c #FB3E34",
"0  c #AF413B",
"q  c #AA423C",
"w  c #AC413C",
"e  c #BA403A",
"r  c #BE453F",
"t  c #C64039",
"y  c #C94038",
"u  c #C9443D",
"i  c #CC443C",
"p  c #FC4035",
"a  c #894D4A",
"s  c #965855",
"d  c #A04A45",
"f  c #AF4842",
"g  c #B64641",
"h  c #B94640",
"j  c #B6504B",
"k  c #A55551",
"l  c #96716F",
"z  c #8E7473",
"x  c #A47D7B",
"c  c #A37E7C",
"v  c #C04D47",
"b  c #C44C46",
"n  c #D7514A",
"m  c #DC574F",
"M  c #C15C57",
"N  c #D75A54",
"B  c #D95852",
"V  c #DE5B55",
"C  c #DD5C56",
"Z  c #EB4B42",
"A  c #E94C44",
"S  c #E05A53",
"D  c #F75950",
"F  c #C8645F",
"G  c #E2625C",
"H  c #E8645D",
"J  c #CE6B66",
"K  c #D06963",
"L  c #D5736E",
"P  c #CE7C78",
"I  c #D17974",
"U  c #DB7975",
"Y  c #EC6861",
"T  c #F06D67",
"R  c #E17F7A",
"E  c #E0807B",
"W  c #8D8B8B",
"Q  c gray55",
"!  c #948787",
"~  c #9B8382",
"^  c #9C8281",
"/  c #9F9292",
"(  c #9A9797",
")  c #9C9594",
"_  c #989898",
"`  c #AB8987",
"'  c #AC8886",
"]  c #A68D8C",
"[  c #AA8988",
"{  c #B99593",
"}  c #B89695",
"|  c #ADA2A2",
" . c #ABA5A5",
".. c gray66",
"X. c #B6B0B0",
"o. c #B4B4B4",
"O. c #D48480",
"+. c #DB8B87",
"@. c #E88883",
"#. c #E49591",
"$. c #C0A3A1",
"%. c #CCAAA8",
"&. c #CAADAC",
"*. c #C7B4B3",
"=. c #C2BCBC",
"-. c #C0C0C0",
";. c #D2CCCB",
":. c #D0D0D0",
/* pixels */
"+ $ + _ ..o.-.:.:.:.:.:.:.:.:.:.:.:.:.:.:.:.:.:.:.:.:.:.-.o..._ + $ + _ ..o.-.:.:.:.:.:.:.:.:.:.:.:.:.:.:.:.:.:.:.:.:.:.-.o..._ ",
"+ $ + 1 -.-.-.-.-.-.-.-.-.-.-.-.o.o.o.o.-.o.-.o.-.o.-.o.-.o.-.Q + $ + 1 -.-.-.-.-.-.-.-.-.-.-.-.o.o.o.o.-.o.-.o.-.o.-.o.-.o.-.Q ",
"+ $ + 1 -.-.o.-.-.-.o.o.-.o.o.o.o.o.o.o.o.-.o.-.o.-.o.o.o.-.o.Q + $ + 1 -.-.o.-.-.-.o.o.-.o.o.o.o.o.o.o.o.-.o.-.o.-.o.o.o.-.o.Q ",
"+ $ + 1 o.o.-.o.o.-.-.o.o.o...o.o.o.o.o.-.o.-.o.-.o.o.o.o...o.Q + $ + 1 o.o.-.o.o.-.-.o.o.o...o.o.o.o.o.-.o.-.o.-.o.o.o.o...o.Q ",
"+ $ + 1 o.-.o.o.o.o.-.o.o...o...-.o.o.-.o.o.o.-.o.-.o.-...o...Q + $ + 1 o.-.o.o.o.o.-.o.o...o...-.o.o.-.o.o.o.-.o.-.o.-...o...Q ",
"+ $ + 1 o.-.o.o.o.o.-.o.o...o...-.o.o.-.o.o.o.-.o.-.o.-...o...Q + $ + 1 o.-.o.o.o.o.-.o.o...o...-.o.o.-.o.o.o.-.o.-.o.-...o...Q ",
"+ $ + 1 o.o.-.o.o.o.o.o...o...-.o.-.o...o.o.o.o...o.-...o.....Q + $ + 1 o.o.-.o.o.o.o.o...o...-.o.-.o...o.o.o.o...o.-...o.....Q ",
"+ $ + 1 o.o.o.-.o.o.o...o...o...-...-.....o...o.............o.Q + $ + 1 o.o.o.-.o.o.o...o...o...-...-.....o...o.............o.Q ",
"+ $ + 1 o.o...o...........o...o.............o...-.....o.o.....Q + $ + 1 o.o...o...........o...o.............o...-.....o.o.....Q ",
"+ $ + 1 .._ o._ ........_ ..o....._ ..o...o._ ......_ ...._ ..Q + $ + 1 .._ o._ ........_ ..o....._ ..o...o._ ......_ ...._ ..Q ",
"+ $ + 1 ..Q _ .._ Q .._ .._ .._ _ .._ _ .._ ......_ ..Q _ .._ Q + $ + 1 ..Q _ .._ Q .._ .._ .._ _ .._ _ .._ ......_ ..Q _ .._ Q ",
"+ $ + 1 Q Q Q _ Q _ Q ..Q .._ Q .._ Q _ Q _ Q _ Q ..Q _ Q .._ Q + $ + 1 Q Q Q _ Q _ Q ..Q .._ Q .._ Q _ Q _ Q _ Q ..Q _ Q .._ Q ",
"+ $ + 1 _ Q _ Q _ _ _ Q _ Q Q .._ _ / ~ ] ^ ] ^ ] ^ ] ^ ] ^ ^ ^ * ; * z ] ^ ] ^ ] ] ] ^ ] ! W .._ _ _ Q _ Q _ Q _ Q _ Q _ Q Q Q ",
"+ $ + > > > > > > > > > > > > > > > s v b b b b b b b b b b b b e r e b b b b b b b b b b k , > > > > > > > > > > > > > > > > > ",
"+ + X                               2 6 7 7 7 7 7 7 7 7 7 7 7 7 7 7 7 7 7 7 7 7 7 7 7 7 7 3 .                                 X ",
"+ + + + + + + + + + + + + + + + + + q 8 7 7 7 7 7 7 7 7 7 7 7 7 7 7 7 7 7 7 7 7 7 7 7 7 7 t @ + + + + + + + + + + + + + + + + + ",
"$ $ $ $ $ $ $ $ $ $ $ $ $ $ $ $ $ $ f 8 7 7 7 7 7 7 7 7 7 7 7 7 7 7 7 7 7 7 7 7 7 7 7 7 7 u & $ $ $ $ $ $ $ $ $ $ $ $ $ $ $ $ $ ",
":.:.:.:.:.:.:.:.:.:.:.-.o..._ + $ + J p 7 7 7 D T T T T T T T T T T T T T T T T T T T Y H I ) + $ + _ ..o.-.:.:.:.:.:.:.:.:.:.:.",
"o.o.o.-.o.-.o.-.o.-.o.-.o.-.Q + $ + M p 7 7 7 R %.&.&.&.&.&.&.$.$.$.$.&.$.&.$.&.$.&.$.&.$.*.W + $ + 1 -.-.-.-.-.-.-.-.-.-.o.o.o.",
"o.o.o.o.-.o.-.o.-.o.o.o.-.o.Q + $ + M p 7 7 7 +.=.o.o.-.o.o.o.o.o.o.o.o.-.o.-.o.-.o.o.o.-.o.Q + $ + 1 -.-.o.-.-.-.o.o.o.o.o.o.o.",
"o.o.o.-.o.-.o.-.o.o.o.o...o.Q + $ + M p 7 7 7 O.=.-.o.o.o...o.o.o.o.o.-.o.-.o.-.o.o.o.o...o.Q + $ + 1 o.o.-.o.o.-.-.o...o.o.o.o.",
"-.o...o.o.o.o...o.-...o.....Q + $ + M p 7 7 7 O.X.o.o...o...-.o.-.o...o.o.o.o...o.-...o.....Q + $ + 1 o.o.-.o.o.o.o.o...-.o.-.-.",
"..-.....o...o.............o.Q + $ + M p 7 7 7 O.X.o...o...o...-...-.....o...o.............o.Q + $ + 1 o.o.o.-.o.o.o...o...-.....",
"o.o.-.o.o.o.-.o.-.o.-...o...Q + $ + M p 7 7 7 O.X.-.o.o...o...-.o.o.-.o.o.o.-.o.-.o.-...o...Q + $ + 1 o.-.o.o.o.o.-.o.o...-.o.o.",
"-.o...o.o.o.o...o.-...o.....Q + $ + M p 7 7 7 O.X.o.o...o...-.o.-.o...o.o.o.o...o.-...o.....Q + $ + 1 o.o.-.o.o.o.o.o...-.o.-.-.",
"..-.....o...o.............o.Q + $ + M p 7 7 7 O.X.o...o...o...-...-.....o...o.............o.Q + $ + 1 o.o.o.-.o.o.o...o...-.....",
"..........o...-.....o.o.....Q + $ + M p 7 7 7 P  .......o...o.............o...-.....o.o.....Q + $ + 1 o.o...o...........o.......",
"_ ..o...o._ ......_ ...._ ..Q + $ + M p 7 7 7 P  ....._ ..o....._ ..o...o._ ......_ ...._ ..Q + $ + 1 .._ o._ ........o....._ _ ",
".._ _ .._ ......_ ..Q _ .._ Q + $ + M p 7 7 7 J x } ` } ` } ` ` } ` ` } ` } } } ` } c [  ._ Q + $ + 1 ..Q _ .._ Q .._ .._ _ ....",
"_ Q _ Q _ Q _ Q ..Q _ Q .._ Q + $ + M 9 7 7 7 A V B G B G C B G C B C B C B C B G B C N | _ Q + $ + 1 Q Q Q _ Q _ Q .._ Q .._ _ ",
"_ _ Q _ Q _ Q _ Q _ Q _ Q Q Q + $ + M 9 7 7 7 7 7 7 7 7 7 7 7 7 7 7 7 7 7 7 7 7 7 7 7 9 ! Q Q + $ + 1 _ Q _ Q _ _ _ Q Q .._ _ _ ",
"> > > > > > > > > > > > > > > + $ + j 8 7 7 7 7 7 7 7 7 7 7 7 7 7 7 7 7 7 7 7 7 7 7 7 8 < > > + $ + > > > > > > > > > > > > > > ",
"                                    2 6 7 7 7 6 6 6 6 6 6 6 6 6 6 6 6 6 6 6 6 6 6 6 6 5 o                                       ",
"+ + + + + + + + + + + + + + + + + + q 8 7 7 7 4 0 w w w w w w w w w w w w w w w w w w q @ + + + + + + + + + + + + + + + + + + + ",
"$ $ $ $ $ $ $ $ $ $ $ $ $ $ $ $ $ $ f 8 7 7 7 d % $ $ $ $ $ $ $ + $ + $ $ $ $ $ $ $ $ $ $ $ $ $ $ $ $ $ $ $ $ $ $ $ $ $ $ $ $ $ ",
"+ $ + _ ..o.-.:.:.:.:.:.:.:.:.:.:.:.@.p 7 7 7 #.;.:.:.:.-.o..._ + $ + _ ..o.-.:.:.:.:.:.:.:.:.:.:.:.:.:.:.:.:.:.:.:.:.:.-.o..._ ",
"+ $ + 1 -.-.-.-.-.-.-.-.-.-.-.-.o.o.U p 7 7 7 O.=.o.-.o.-.o.-.Q + $ + 1 -.-.-.-.-.-.-.-.-.-.-.-.o.o.o.o.-.o.-.o.-.o.-.o.-.o.-.Q ",
"+ $ + 1 -.-.o.-.-.-.o.o.-.o.o.o.o.o.U p 7 7 7 +.X.-.o.o.o.-.o.Q + $ + 1 -.-.o.-.-.-.o.o.-.o.o.o.o.o.o.o.o.-.o.-.o.-.o.o.o.-.o.Q ",
"+ $ + 1 o.o.-.o.o.-.-.o.o.o...o.o.o.U p 7 7 7 O.=.o.o.o.o...o.Q + $ + 1 o.o.-.o.o.-.-.o.o.o...o.o.o.o.o.-.o.-.o.-.o.o.o.o...o.Q ",
"+ $ + 1 o.-.o.o.o.o.-.o.o...o...-.o.U p 7 7 7 +.X.-.o.-...o...Q + $ + 1 o.-.o.o.o.o.-.o.o...o...-.o.o.-.o.o.o.-.o.-.o.-...o...Q ",
"+ $ + 1 o.o.-.o.o.o.o.o...o...-.o.-.U p 7 7 7 O. .o.-...o.....Q + $ + 1 o.o.-.o.o.o.o.o...o...-.o.-.o...o.o.o.o...o.-...o.....Q ",
"+ $ + 1 o.o.o.-.o.o.o...o...o...-...E p 7 7 7 O. ...........o.Q + $ + 1 o.o.o.-.o.o.o...o...o...-...-.....o...o.............o.Q ",
"+ $ + 1 o.o...o...........o...o.....L p 7 7 7 P =.....o.o.....Q + $ + 1 o.o...o...........o...o.............o...-.....o.o.....Q ",
"+ $ + 1 .._ o._ ........_ ..o....._ L p 7 7 7 P  ..._ ...._ ..Q + $ + 1 .._ o._ ........_ ..o....._ ..o...o._ ......_ ...._ ..Q ",
"+ $ + 1 ..Q _ .._ Q .._ .._ .._ _ ..J 9 7 7 7 P  ._ ..Q _ .._ Q + $ + 1 ..Q _ .._ Q .._ .._ .._ _ .._ _ .._ ......_ ..Q _ .._ Q ",
"+ $ + 1 Q Q Q _ Q _ Q ..Q .._ Q .._ F 9 7 7 7 K x { c ' c { ' c = - = l c c c ' c ' c { c { ( Q .._ Q _ Q _ Q _ Q ..Q _ Q .._ Q ",
"+ $ + 1 _ Q _ Q _ _ _ Q _ Q Q .._ _ J 9 7 7 7 Z S m V m V m m m y i y n V m V m V V V m V m ! .._ _ _ Q _ Q _ Q _ Q _ Q _ Q Q Q ",
"+ $ + > > > > > > > > > > > > > > > j 8 7 7 7 7 7 7 7 7 7 7 7 7 7 7 7 7 7 7 7 7 7 7 7 7 7 7 : > > > > > > > > > > > > > > > > > ",
"+ $ + X                             2 6 7 7 7 7 7 7 7 7 7 7 7 7 7 7 7 7 7 7 7 7 7 7 7 7 7 7 O                                 X ",
"+ + + + + + + + + + + + + + + + + + q 8 7 7 7 7 7 7 7 7 7 7 7 7 7 7 7 7 7 7 7 7 7 7 7 7 7 7 # + + + + + + + + + + + + + + + + + ",
"$ $ $ $ $ $ $ $ $ $ $ $ $ $ $ $ $ $ a g h h h h h h h h h h h h h h h h h h h h h h h h h h & $ $ $ $ $ $ $ $ $ $ $ $ $ $ $ $ $ ",
":.:.:.:.:.:.:.:.:.:.:.-.o..._ + $ + _ ..o.-.:.:.:.:.:.:.:.:.:.:.:.:.:.:.:.:.:.:.:.:.:.-.o..._ + $ + _ ..o.-.:.:.:.:.:.:.:.:.:.:.",
"o.o.o.-.o.-.o.-.o.-.o.-.o.-.Q + $ + 1 -.-.-.-.-.-.-.-.-.-.-.-.o.o.o.o.-.o.-.o.-.o.-.o.-.o.-.Q + $ + 1 -.-.-.-.-.-.-.-.-.-.o.o.o.",
"o.o.o.o.-.o.-.o.-.o.o.o.-.o.Q + $ + 1 -.-.o.-.-.-.o.o.-.o.o.o.o.o.o.o.o.-.o.-.o.-.o.o.o.-.o.Q + $ + 1 -.-.o.-.-.-.o.o.o.o.o.o.o.",
"o.o.o.-.o.-.o.-.o.o.o.o...o.Q + $ + 1 o.o.-.o.o.-.-.o.o.o...o.o.o.o.o.-.o.-.o.-.o.o.o.o...o.Q + $ + 1 o.o.-.o.o.-.-.o...o.o.o.o.",
"o.o.-.o.o.o.-.o.-.o.-...o...Q + $ + 1 o.-.o.o.o.o.-.o.o...o...-.o.o.-.o.o.o.-.o.-.o.-...o...Q + $ + 1 o.-.o.o.o.o.-.o.o...-.o.o.",
"-.o...o.o.o.o...o.-...o.....Q + $ + 1 o.o.-.o.o.o.o.o...o...-.o.-.o...o.o.o.o...o.-...o.....Q + $ + 1 o.o.-.o.o.o.o.o...-.o.-.-.",
"..-.....o...o.............o.Q + $ + 1 o.o.o.-.o.o.o...o...o...-...-.....o...o.............o.Q + $ + 1 o.o.o.-.o.o.o...o...-.....",
"..........o...-.....o.o.....Q + $ + 1 o.o...o...........o...o.............o...-.....o.o.....Q + $ + 1 o.o...o...........o.......",
"_ ..o...o._ ......_ ...._ ..Q + $ + 1 .._ o._ ........_ ..o....._ ..o...o._ ......_ ...._ ..Q + $ + 1 .._ o._ ........o....._ _ ",
".._ _ .._ ......_ ..Q _ .._ Q + $ + 1 ..Q _ .._ Q .._ .._ .._ _ .._ _ .._ ......_ ..Q _ .._ Q + $ + 1 ..Q _ .._ Q .._ .._ _ ....",
"_ Q _ Q _ Q _ Q ..Q _ Q .._ Q + $ + 1 Q Q Q _ Q _ Q ..Q .._ Q .._ Q _ Q _ Q _ Q ..Q _ Q .._ Q + $ + 1 Q Q Q _ Q _ Q .._ Q .._ _ ",
"_ _ Q _ Q _ Q _ Q _ Q _ Q Q Q + $ + 1 _ Q _ Q _ _ _ Q _ Q Q .._ _ _ Q _ Q _ Q _ Q _ Q _ Q Q Q + $ + 1 _ Q _ Q _ _ _ Q Q .._ _ _ ",
"> > > > > > > > > > > > > > > + $ + > > > > > > > > > > > > > > > > > > > > > > > > > > > > > + $ + > > > > > > > > > > > > > > "
};
