/* XPM */
static char *_6a02fe44e7149f08dde296178d1aa2eeVKJqubyb2szv4nD[] = {
/* columns rows colors chars-per-pixel */
"64 64 168 2 ",
"   c #2C2C2C",
".  c #3D2D2C",
"X  c gray22",
"o  c #442E2D",
"O  c #4A2E2D",
"+  c #522F2D",
"@  c #74312D",
"#  c #7A312D",
"$  c #484848",
"%  c #564747",
"&  c #5C4746",
"*  c #504847",
"=  c #545454",
"-  c #5D5353",
";  c #674745",
":  c #6B4644",
">  c #794542",
",  c #7D4F4D",
"<  c #635252",
"1  c #6D5150",
"2  c #7D5E5D",
"3  c #646464",
"4  c #686363",
"5  c #726160",
"6  c #7C7C7C",
"7  c #85322E",
"8  c #9C342F",
"9  c #A3352E",
"0  c #B8362F",
"q  c #C7372F",
"w  c #D0372F",
"e  c #D7382F",
"r  c #DA382F",
"t  c #D23F37",
"y  c #DC3C33",
"u  c #E43C33",
"i  c #ED3D34",
"p  c #F53D33",
"a  c #FF3B30",
"s  c #96433F",
"d  c #A3433D",
"f  c #AC423C",
"g  c #B2413B",
"h  c #BE423C",
"j  c #C5423B",
"k  c #CC443C",
"l  c #D2433B",
"z  c #DC423A",
"x  c #E34037",
"c  c #E2433A",
"v  c #ED433A",
"b  c #F64036",
"n  c #FC4136",
"m  c #F4443B",
"M  c #FA443A",
"N  c #F6493F",
"B  c #8C4440",
"V  c #874946",
"C  c #9D4A46",
"Z  c #8A5B59",
"A  c #945956",
"S  c #A54945",
"D  c #AD4943",
"F  c #BA4740",
"G  c #B24842",
"H  c #BD4F49",
"J  c #AA534F",
"K  c #B4514B",
"L  c #A85450",
"P  c #B5625E",
"I  c #8C7675",
"U  c #A36B68",
"Y  c #B06460",
"T  c #BA6F6B",
"R  c #B3736F",
"E  c #A97A78",
"W  c #B27471",
"Q  c #B77F7D",
"!  c #C24D47",
"~  c #CB4A43",
"^  c #D64740",
"/  c #D44840",
"(  c #DC534C",
")  c #D45D57",
"_  c #DD5D56",
"`  c #E84D44",
"'  c #F34D44",
"]  c #FB4B41",
"[  c #E55149",
"{  c #EE534B",
"}  c #F45047",
"|  c #F3544C",
" . c #E55A53",
".. c #EB5D55",
"X. c #F25D55",
"o. c #CB625D",
"O. c #D8615B",
"+. c #E2645D",
"@. c #EC635C",
"#. c #C76560",
"$. c #CC6C67",
"%. c #C96F6A",
"&. c #D26762",
"*. c #D6736E",
"=. c #C17672",
"-. c #CF7C77",
";. c #CB7F7B",
":. c #D77F7B",
">. c #EA6B65",
",. c #E36E68",
"<. c #E86F69",
"1. c #F06F68",
"2. c #E8726B",
"3. c #EC7D77",
"4. c #9E817F",
"5. c #B5817F",
"6. c #C9827F",
"7. c #D6827D",
"8. c #EA837E",
"9. c #8C8C8C",
"0. c #968685",
"q. c #9A8482",
"w. c #938887",
"e. c #918989",
"r. c #9A9797",
"t. c #999897",
"y. c #989898",
"u. c #AE8684",
"i. c #B18481",
"p. c #BF8F8C",
"a. c #BC918F",
"s. c #A19291",
"d. c #B79796",
"f. c #BA9391",
"g. c #B79896",
"h. c #B29D9C",
"j. c #ABA4A4",
"k. c gray66",
"l. c #BEA6A5",
"z. c #B9ACAC",
"x. c #B4B4B4",
"c. c #C68683",
"v. c #C08D8B",
"b. c #DA8985",
"n. c #CC918E",
"m. c #D9918D",
"M. c #C79896",
"N. c #C49D9B",
"B. c #D79490",
"V. c #D49A98",
"C. c #E88883",
"Z. c #E78D88",
"A. c #E6908B",
"S. c #E49692",
"D. c #C2A09E",
"F. c #E0A29F",
"G. c #C0A3A2",
"H. c #CBABAA",
"J. c #DFA5A2",
"K. c #DEA9A6",
"L. c #DDACAA",
"P. c #C6B5B4",
"I. c #C1BDBD",
"U. c #D8BAB8",
"Y. c #C0C0C0",
"T. c #D5C2C1",
"R. c #D1CECE",
"E. c #D0D0D0",
/* pixels */
"$ = $ y.k.x.Y.E.E.E.E.E.E.E.E.E.E.E.E.E.E.E.E.E.E.E.E.E.Y.x.k.y.$ = $ y.k.x.Y.E.E.E.E.E.E.E.E.E.E.E.E.E.E.E.E.E.E.E.E.E.Y.x.k.y.",
"$ = $ 6 Y.Y.Y.Y.Y.Y.Y.Y.Y.Y.Y.Y.x.x.x.x.Y.x.Y.x.Y.x.Y.x.Y.x.Y.9.$ = $ 6 Y.Y.Y.Y.Y.Y.Y.Y.Y.Y.Y.Y.x.x.x.x.Y.x.Y.x.Y.x.Y.x.Y.x.Y.9.",
"$ = $ 6 Y.Y.x.Y.Y.Y.x.x.Y.x.x.x.x.x.x.x.x.Y.x.Y.x.Y.x.x.x.Y.x.9.$ = $ 6 Y.Y.x.Y.Y.Y.x.x.Y.x.x.x.x.x.x.x.x.Y.x.Y.x.Y.x.x.x.Y.x.9.",
"$ = $ 6 x.x.Y.x.x.Y.Y.x.x.x.k.x.x.x.x.x.Y.x.Y.x.Y.x.x.x.x.k.x.9.$ = $ 6 x.x.Y.x.x.Y.Y.x.x.x.k.x.x.x.x.x.Y.x.Y.x.Y.x.x.x.x.k.x.9.",
"$ = $ 6 x.Y.x.x.x.x.Y.x.x.k.x.k.Y.x.x.Y.x.x.x.Y.x.Y.x.Y.k.x.k.9.$ = $ 6 x.Y.x.x.x.x.Y.x.x.k.x.k.Y.x.x.Y.x.x.x.Y.x.Y.x.Y.k.x.k.9.",
"$ = $ 6 x.Y.x.x.x.x.Y.x.x.k.x.k.Y.x.x.Y.x.x.x.Y.x.Y.x.Y.k.x.k.9.$ = $ 6 x.Y.x.x.x.x.Y.x.x.k.x.k.Y.x.x.Y.x.x.x.Y.x.Y.x.Y.k.x.k.9.",
"$ = $ 6 x.x.Y.x.x.x.x.x.k.x.k.Y.x.Y.x.k.x.x.x.x.k.x.Y.k.x.k.k.9.$ = $ 6 x.x.Y.x.x.x.x.x.k.x.k.Y.x.Y.x.k.x.x.x.x.k.x.Y.k.x.k.k.9.",
"$ = $ 6 x.x.x.Y.x.x.x.k.x.k.x.k.Y.k.Y.k.k.x.k.x.k.k.k.k.k.k.x.9.$ = $ 6 x.x.x.Y.x.x.x.k.x.k.x.k.Y.k.Y.k.k.x.k.x.k.k.k.k.k.k.x.9.",
"$ = $ 6 x.x.k.x.k.k.k.k.k.x.k.x.k.k.k.k.k.k.x.k.Y.k.k.x.x.k.k.9.$ = $ 6 x.x.k.x.k.k.k.k.k.x.k.x.k.k.k.k.k.k.x.k.Y.k.k.x.x.k.k.9.",
"$ = $ 6 k.y.x.y.k.k.k.k.y.k.x.k.k.y.k.x.k.x.y.k.k.k.y.k.k.y.k.9.$ = $ 6 k.y.x.y.k.k.k.k.y.k.x.k.k.y.k.x.k.x.y.k.k.k.y.k.k.y.k.9.",
"$ = $ 6 k.9.y.k.y.9.k.y.k.y.k.y.y.k.y.y.k.y.k.k.k.y.k.9.y.k.y.9.$ = $ 6 k.9.y.k.y.9.k.y.k.y.k.y.y.k.y.y.k.y.k.k.k.y.k.9.y.k.y.9.",
"$ = $ 6 9.9.9.y.9.y.9.k.9.k.y.9.k.y.9.y.9.y.9.y.9.k.9.y.9.j.s.0.$ = $ 6 9.9.9.y.9.y.9.k.9.k.y.9.k.y.9.y.9.y.9.y.9.k.9.y.9.k.y.9.",
"$ = $ 6 y.9.y.9.y.y.y.9.y.9.9.k.y.y.y.9.y.9.y.9.r.E Q T %.#.o.o.d C B U u.w.y.9.y.y.y.9.y.9.9.k.y.y.y.9.y.9.y.9.y.9.y.9.y.9.9.9.",
"$ = $ 3 3 3 3 3 3 3 3 3 3 3 3 3 3 3 3 3 3 3 4 Z J ~ c p a a a a a p i c ^ K A 5 3 3 3 3 3 3 3 3 3 3 3 3 3 3 3 3 3 3 3 3 3 3 3 3 ",
"$ $ X                                     o 7 q p a a a a a a a a a a a a a e 9 @ .                                           X ",
"$ $ $ $ $ $ $ $ $ $ $ $ $ $ $ $ $ $ $ $ & f i a a a a a a a a a a a a a a a a a u d & $ $ $ $ $ $ $ $ $ $ $ $ $ $ $ $ $ $ $ $ $ ",
"= = = = = = = = = = = = = = = = = = = - D p a a a a p x z l j j k l x p a a a a a p G < = = = = = = = = = = = = = = = = = = = = ",
"E.E.E.E.E.E.E.E.E.E.E.Y.x.k.y.$ = $ y.c.N a a a a X.8.F.L.U.T.T.U.U.J.A.1.] a a a a n m.x.k.y.$ = $ y.k.x.Y.E.E.E.E.E.E.E.E.E.E.",
"x.x.x.Y.x.Y.x.Y.x.Y.x.Y.x.Y.9.$ = $ I X.a a a a >.V.I.Y.Y.Y.Y.x.x.x.x.Y.G.b.' a a a a | l.I.9.$ = $ 6 Y.Y.Y.Y.Y.Y.Y.Y.Y.Y.x.x.x.",
"x.x.x.x.Y.x.Y.x.Y.x.x.x.Y.x.9.$ = $ Y n a a a X.H.x.x.Y.x.x.x.x.x.x.x.x.Y.x.b.N a a a a m.x.9.$ = $ 6 Y.Y.x.Y.Y.Y.x.x.x.x.x.x.x.",
"x.x.x.Y.x.Y.x.Y.x.x.x.x.k.x.9.$ = $ ( a a a a n.I.Y.x.x.x.k.x.x.x.x.x.Y.x.Y.x.>.a a a a +.z.9.$ = $ 6 x.x.Y.x.x.Y.Y.x.k.x.x.x.x.",
"Y.x.k.x.x.x.x.k.x.Y.k.x.k.k.9.$ = $ v a a a ' z.x.x.x.k.x.k.Y.x.Y.x.k.x.x.x.x.v.n a a a N j.9.$ = $ 6 x.x.Y.x.x.x.x.x.k.Y.x.Y.Y.",
"k.Y.k.k.x.k.x.k.k.k.k.k.k.x.9.$ = & b a a a @.z.x.x.k.x.k.x.k.Y.k.Y.k.k.x.k.x.j.' a a a a l.9.$ = $ 6 x.x.x.Y.x.x.x.k.x.k.Y.k.k.",
"x.x.Y.x.x.x.Y.x.Y.x.Y.k.x.k.9.$ = : b a a a ..z.x.Y.x.x.k.x.k.Y.x.x.Y.x.x.x.Y.x.2.} } ' ' h.9.$ = $ 6 x.Y.x.x.x.x.Y.x.x.k.Y.x.x.",
"Y.x.k.x.x.x.x.k.x.Y.k.x.k.k.9.$ = ; b a a a N l.x.x.x.k.x.k.Y.x.Y.x.k.x.x.x.x.k.N.B.6.b.6.j.9.$ = $ 6 x.x.Y.x.x.x.x.x.k.Y.x.Y.Y.",
"k.Y.k.k.x.k.x.k.k.k.k.k.k.x.9.$ = % m a a a a :.z.x.k.x.k.x.k.Y.k.Y.k.k.x.k.x.k.k.k.k.k.k.x.9.$ = $ 6 x.x.x.Y.x.x.x.k.x.k.Y.k.k.",
"k.k.k.k.k.x.k.Y.k.k.x.x.k.k.9.$ = $ ` a a a a N -.g.j.k.x.k.x.k.k.k.k.k.k.x.k.Y.k.k.x.x.k.k.9.$ = $ 6 x.x.k.x.k.k.k.k.k.x.k.k.k.",
"y.k.x.k.x.y.k.k.k.y.k.k.y.k.9.$ = $ P n a a a a M +.-.Q d.z.k.k.y.k.x.k.x.y.k.k.k.y.k.k.y.k.9.$ = $ 6 k.y.x.y.k.k.k.k.x.k.k.y.y.",
"k.y.y.k.y.k.k.k.y.k.9.y.k.y.9.$ = $ I ..a a a a a a a { _ *.=.5.d.s.y.k.y.k.k.k.y.k.9.y.k.y.9.$ = $ 6 k.9.y.k.y.9.k.y.k.y.y.k.k.",
"y.9.y.9.y.9.y.9.k.9.y.9.k.y.9.$ = $ 6 E [ a a a a a a a a a b { _ o.=.W u.0.r.9.k.9.y.9.k.y.9.$ = $ 6 9.9.9.y.9.y.9.k.y.9.k.y.y.",
"y.y.9.y.9.y.9.y.9.y.9.y.9.9.9.$ = $ 6 y.E _ m a a a a a a a a a a a p ' ( &.T 5.q.r.9.y.9.9.9.$ = $ 6 y.9.y.9.y.y.y.9.9.k.y.y.y.",
"3 3 3 3 3 3 3 3 3 3 3 3 3 3 3 $ = $ 3 3 3 2 L ~ c p a a a a a a a a a a a a p z H A 5 3 3 3 3 $ = $ 3 3 3 3 3 3 3 3 3 3 3 3 3 3 ",
"                                              O # 8 0 w u p a a a a a a a a a a a y 9 +                                         ",
"$ $ $ $ $ $ $ $ $ $ $ $ $ $ $ $ $ $ $ $ $ $ $ $ $ $ & > s f j t u p a a a a a a a a a h : $ $ $ $ $ $ $ $ $ $ $ $ $ $ $ $ $ $ $ ",
"= = = = = = = = = = = = = = = = = = = = = = = = = = = = = = < , B D h l i a a a a a a a F < = = = = = = = = = = = = = = = = = = ",
"$ = $ y.k.x.Y.E.E.E.E.E.E.E.E.E.E.E.E.E.E.E.E.E.E.E.E.E.Y.x.k.y.$ = & i.;.,.| n a a a a M K.R.E.E.E.E.E.E.E.E.E.E.E.E.E.Y.x.k.y.",
"$ = $ 6 Y.Y.Y.Y.Y.Y.Y.Y.Y.Y.Y.Y.x.x.x.x.Y.x.Y.x.Y.x.Y.x.Y.x.Y.9.$ = $ 6 Y.P.V.2.n a a a a <.I.Y.x.x.x.x.Y.x.Y.x.Y.x.Y.x.Y.x.Y.9.",
"$ = $ 6 Y.Y.x.Y.Y.Y.x.x.Y.x.x.x.x.x.x.x.x.Y.x.Y.x.Y.x.x.x.Y.x.9.$ = $ 6 Y.Y.x.P.>.a a a a ] z.x.x.x.x.x.x.Y.x.Y.x.Y.x.x.x.Y.x.9.",
"$ = $ 6 x.x.Y.x.x.Y.Y.x.x.x.k.x.N.7.7.7.b.D.I.x.Y.x.x.x.x.k.x.9.$ = $ 6 x.x.Y.x.N.N a a a a d.x.x.x.x.x.Y.x.Y.x.Y.x.x.x.x.k.x.9.",
"$ = $ 6 x.Y.x.x.x.x.Y.x.x.k.x.k.m.n a a a :.x.Y.x.Y.x.Y.k.x.k.9.$ = $ 6 x.Y.x.x.x.} a a a a M.j.Y.x.x.Y.x.x.x.Y.x.Y.x.Y.k.x.k.9.",
"$ = $ 6 x.x.Y.x.x.x.x.x.k.x.k.Y.n.n a a a ,.z.x.k.x.Y.k.x.k.k.9.$ = $ 6 x.x.Y.x.x...a a a a p.I.x.Y.x.k.x.x.x.x.k.x.Y.k.x.k.k.9.",
"$ = $ 6 x.x.x.Y.x.x.x.k.x.k.x.k.H.M a a a | h.x.k.k.k.k.k.k.x.9.$ = $ 6 x.x.x.Y.x.@.a a a a D.j.Y.k.Y.k.k.x.k.x.k.k.k.k.k.k.x.9.",
"$ = $ 6 x.x.k.x.k.k.k.k.k.x.k.x.j.' a a a a n.j.Y.k.k.x.x.k.k.9.$ = $ 6 x.x.k.x.j.' a a a a h.x.k.k.k.k.k.k.x.k.Y.k.k.x.x.k.k.9.",
"$ = $ 6 k.y.x.y.k.k.k.k.y.k.x.k.k.O.a a a a  .h.j.k.y.k.k.y.k.9.$ = $ 6 k.y.x.y.c.n a a a { z.k.k.y.k.x.k.x.y.k.k.k.y.k.k.y.k.9.",
"$ = $ 6 k.9.y.k.y.9.k.y.k.y.k.y.y.v.m a a a a *.h.t.k.9.y.k.y.9.$ = $ 6 k.9.y.a.[ a a a a $.j.y.y.k.y.y.k.y.k.k.k.y.k.9.y.k.y.9.",
"$ = $ 6 9.9.9.y.9.y.9.k.9.k.y.9.k.r.) a a a a n o.p.e.y.9.k.y.9.$ = $ 6 9.q.W  .a a a a m f.r.9.k.y.9.y.9.y.9.y.9.k.9.y.9.k.y.9.",
"$ = $ 6 y.9.y.9.y.y.y.9.y.9.9.k.y.y.u.[ a a a a a [ %.R u.4.q.0.& 1 : U =.) ' a a a a p %.e.9.k.y.y.y.9.y.9.y.9.y.9.y.9.y.9.9.9.",
"$ = $ 3 3 3 3 3 3 3 3 3 3 3 3 3 3 3 3 A c a a a a a a v / ~ ! H g h j c p a a a a a p ! 5 3 3 3 3 3 3 3 3 3 3 3 3 3 3 3 3 3 3 3 ",
"$ = $ X                                 @ q p a a a a a a a a a a a a a a a a a p r 8 o                                       X ",
"$ $ $ $ $ $ $ $ $ $ $ $ $ $ $ $ $ $ $ $ $ : g y p a a a a a a a a a a a a a i t g B * $ $ $ $ $ $ $ $ $ $ $ $ $ $ $ $ $ $ $ $ $ ",
"= = = = = = = = = = = = = = = = = = = = = = - V G k z i p a a a a p i x z j S , - = = = = = = = = = = = = = = = = = = = = = = = ",
"E.E.E.E.E.E.E.E.E.E.E.Y.x.k.y.$ = $ y.k.x.Y.E.E.R.U.K.S.C.8.3.3.8.Z.S.F.K.T.R.E.E.E.E.Y.x.k.y.$ = $ y.k.x.Y.E.E.E.E.E.E.E.E.E.E.",
"x.x.x.Y.x.Y.x.Y.x.Y.x.Y.x.Y.9.$ = $ 6 Y.Y.Y.Y.Y.Y.Y.Y.Y.Y.Y.I.x.x.x.x.Y.x.Y.x.Y.x.Y.x.Y.x.Y.9.$ = $ 6 Y.Y.Y.Y.Y.Y.Y.Y.Y.Y.x.x.x.",
"x.x.x.x.Y.x.Y.x.Y.x.x.x.Y.x.9.$ = $ 6 Y.Y.x.Y.Y.Y.x.x.Y.x.x.x.x.x.x.x.x.Y.x.Y.x.Y.x.x.x.Y.x.9.$ = $ 6 Y.Y.x.Y.Y.Y.x.x.x.x.x.x.x.",
"x.x.x.Y.x.Y.x.Y.x.x.x.x.k.x.9.$ = $ 6 x.x.Y.x.x.Y.Y.x.x.x.k.x.x.x.x.x.Y.x.Y.x.Y.x.x.x.x.k.x.9.$ = $ 6 x.x.Y.x.x.Y.Y.x.k.x.x.x.x.",
"x.x.Y.x.x.x.Y.x.Y.x.Y.k.x.k.9.$ = $ 6 x.Y.x.x.x.x.Y.x.x.k.x.k.Y.x.x.Y.x.x.x.Y.x.Y.x.Y.k.x.k.9.$ = $ 6 x.Y.x.x.x.x.Y.x.x.k.Y.x.x.",
"Y.x.k.x.x.x.x.k.x.Y.k.x.k.k.9.$ = $ 6 x.x.Y.x.x.x.x.x.k.x.k.Y.x.Y.x.k.x.x.x.x.k.x.Y.k.x.k.k.9.$ = $ 6 x.x.Y.x.x.x.x.x.k.Y.x.Y.Y.",
"k.Y.k.k.x.k.x.k.k.k.k.k.k.x.9.$ = $ 6 x.x.x.Y.x.x.x.k.x.k.x.k.Y.k.Y.k.k.x.k.x.k.k.k.k.k.k.x.9.$ = $ 6 x.x.x.Y.x.x.x.k.x.k.Y.k.k.",
"k.k.k.k.k.x.k.Y.k.k.x.x.k.k.9.$ = $ 6 x.x.k.x.k.k.k.k.k.x.k.x.k.k.k.k.k.k.x.k.Y.k.k.x.x.k.k.9.$ = $ 6 x.x.k.x.k.k.k.k.k.x.k.k.k.",
"y.k.x.k.x.y.k.k.k.y.k.k.y.k.9.$ = $ 6 k.y.x.y.k.k.k.k.y.k.x.k.k.y.k.x.k.x.y.k.k.k.y.k.k.y.k.9.$ = $ 6 k.y.x.y.k.k.k.k.x.k.k.y.y.",
"k.y.y.k.y.k.k.k.y.k.9.y.k.y.9.$ = $ 6 k.9.y.k.y.9.k.y.k.y.k.y.y.k.y.y.k.y.k.k.k.y.k.9.y.k.y.9.$ = $ 6 k.9.y.k.y.9.k.y.k.y.y.k.k.",
"y.9.y.9.y.9.y.9.k.9.y.9.k.y.9.$ = $ 6 9.9.9.y.9.y.9.k.9.k.y.9.k.y.9.y.9.y.9.y.9.k.9.y.9.k.y.9.$ = $ 6 9.9.9.y.9.y.9.k.y.9.k.y.y.",
"y.y.9.y.9.y.9.y.9.y.9.y.9.9.9.$ = $ 6 y.9.y.9.y.y.y.9.y.9.9.k.y.y.y.9.y.9.y.9.y.9.y.9.y.9.9.9.$ = $ 6 y.9.y.9.y.y.y.9.9.k.y.y.y.",
"3 3 3 3 3 3 3 3 3 3 3 3 3 3 3 $ = $ 3 3 3 3 3 3 3 3 3 3 3 3 3 3 3 3 3 3 3 3 3 3 3 3 3 3 3 3 3 $ = $ 3 3 3 3 3 3 3 3 3 3 3 3 3 3 "
};
